<svg xmlns="http://www.w3.org/2000/svg" viewBox="0 0 19.84 19.84"><defs><style>.cls-1{fill:#fff;}</style></defs><g id="Capa_2" data-name="Capa 2"><g id="Capa_1-2" data-name="Capa 1"><path class="cls-1" d="M18.43,13.38a.81.81,0,0,0,1.41-.51V3.1A3.1,3.1,0,0,0,16.74,0H3.1A3.1,3.1,0,0,0,0,3.1V16.74a3.1,3.1,0,0,0,3.1,3.1H16.74a3.1,3.1,0,0,0,3.1-3.06.8.8,0,0,0-.73-.81.78.78,0,0,0-.82.76,1.56,1.56,0,0,1-1.55,1.56h-3.8V12.63h1.8a.78.78,0,0,0,.77-.68l.1-.85a.78.78,0,0,0-.77-.87h-1.9V7.64a1.17,1.17,0,0,1,1.17-1.17h1a.78.78,0,0,0,.78-.77V4.91a.78.78,0,0,0-.69-.77c-.4,0-.81-.07-1.05-.07a3.58,3.58,0,0,0-2.49,1,3.5,3.5,0,0,0-1.08,2.52v2.59H8.8A.78.78,0,0,0,8,11v.85a.77.77,0,0,0,.78.77h1.74v5.66H3.1a1.54,1.54,0,0,1-1.55-1.55V3.1A1.54,1.54,0,0,1,3.1,1.55H17.49a.8.8,0,0,1,.8.8V13.07a.41.41,0,0,0,.14.31"/></g></g></svg>