<svg xmlns="http://www.w3.org/2000/svg" viewBox="0 0 19.84 19.84"><defs><style>.cls-1{fill:#fff;}</style></defs><g id="Capa_2" data-name="Capa 2"><g id="Capa_1-2" data-name="Capa 1"><path class="cls-1" d="M14.08,0H5.76A5.76,5.76,0,0,0,0,5.76v8.32a5.76,5.76,0,0,0,5.76,5.76h8.32a5.76,5.76,0,0,0,5.76-5.76V5.76A5.76,5.76,0,0,0,14.08,0m0,18.29H5.76a4.21,4.21,0,0,1-4.21-4.21V5.76A4.22,4.22,0,0,1,5.76,1.55h8.32a4.22,4.22,0,0,1,4.21,4.21v8.32a4.21,4.21,0,0,1-4.21,4.21"/><path class="cls-1" d="M9.91,4.55A5.35,5.35,0,1,0,15.26,9.9,5.36,5.36,0,0,0,9.91,4.55m0,9.15a3.8,3.8,0,1,1,3.8-3.8,3.8,3.8,0,0,1-3.8,3.8"/><path class="cls-1" d="M15.34,3.7a.78.78,0,1,1-.78.78.78.78,0,0,1,.78-.78"/></g></g></svg>