<svg id="Capa_1" data-name="Capa 1" xmlns="http://www.w3.org/2000/svg" viewBox="0 0 528.52 173.34"><defs><style>.cls-1{fill:#67e1e2;}</style></defs><path class="cls-1" d="M74.38,56.06A9.5,9.5,0,0,1,83.52,50c5.15,0,9.56,3.47,9.56,8.93A8.43,8.43,0,0,1,92.45,62L72.39,113.93c-2,5.25-6.41,9.56-13.34,9.56-7.15,0-11.35-4.31-13.34-9.56L26.38,62.15a9.67,9.67,0,0,1-.53-3c0-5,4.1-9.14,9.67-9.14a9.13,9.13,0,0,1,8.82,6.2L59.15,99.85Z"/><path class="cls-1" d="M118.28,106.05h31a8.2,8.2,0,0,1,0,16.39H109a9.06,9.06,0,0,1-9.24-8.93V59.84A9.06,9.06,0,0,1,109,50.91h40.23a8.2,8.2,0,0,1,0,16.38h-31V78.22h25.41a8.2,8.2,0,0,1,0,16.38H118.28Z"/><path class="cls-1" d="M184.34,114.56a9.2,9.2,0,0,1-9.25,8.93,9.06,9.06,0,0,1-9.24-8.93V59.94a9.08,9.08,0,0,1,9.24-9h24.48c7,0,13.65,1.47,18.38,5.15,5.35,4.2,8.3,11.23,8.3,18.8a23.27,23.27,0,0,1-7.88,17.64,26.06,26.06,0,0,1-2.84,2.21l9.45,15a8.16,8.16,0,0,1,1.27,4.41,9.58,9.58,0,0,1-9.35,9.35,8.86,8.86,0,0,1-7.78-4.31L197.05,99.12H184.34Zm0-48v17H198.1A11.7,11.7,0,0,0,204.19,82a8,8,0,0,0,3.25-6.93c0-3.15-1.05-5.36-2.94-6.73a10.46,10.46,0,0,0-6.19-1.78Z"/><path class="cls-1" d="M277.71,70.45c-3,0-5.57-1.37-8.62-2.63a20.9,20.9,0,0,0-8.3-1.89c-5.25,0-7.56,1.47-7.56,4.09,0,3.26,3.57,4.84,8.51,6.31,5.88,1.78,13.76,3.36,19.33,7.66,4.62,3.47,7.66,8.51,7.66,16.39,0,14.49-12.71,23.11-28.57,23.11-3.88,0-11.86-.63-18.17-3-4.83-1.89-8.61-4.83-8.61-9.45a8.72,8.72,0,0,1,8.72-8.82c2.52,0,4.73,1.25,7.35,2.52a22.72,22.72,0,0,0,10.5,2.83c7.78,0,8.62-3.88,8.62-5.67,0-3.68-3.78-5.46-8.83-7-5.46-1.78-12.6-3.36-18-7.25-4.72-3.57-8.08-8.71-8.08-17.11C233.7,59,243.36,50,261.84,50c4.21,0,11.45.42,17,2.73,4.31,1.79,7.56,4.62,7.56,9.14A8.48,8.48,0,0,1,277.71,70.45Z"/><path class="cls-1" d="M333.79,123.49C313,123.49,295,109,295,86.83,295,64.46,313,50,333.79,50s38.65,14.5,38.65,36.87S354.48,123.49,333.79,123.49Zm0-56.2c-11.14,0-19.12,8.2-19.12,19.54s8,19.43,19.12,19.43,19-8.09,19-19.43S344.92,67.29,333.79,67.29Z"/><path class="cls-1" d="M423.48,56.06a9.48,9.48,0,0,1,9.13-6.1c5.15,0,9.56,3.47,9.56,8.93a8.43,8.43,0,0,1-.63,3.15l-20.06,51.89c-2,5.25-6.4,9.56-13.34,9.56-7.14,0-11.34-4.31-13.34-9.56L375.48,62.15a9.67,9.67,0,0,1-.53-3c0-5,4.1-9.14,9.66-9.14a9.14,9.14,0,0,1,8.83,6.2l14.81,43.69Z"/><path class="cls-1" d="M482.19,109.52h-22l-2.41,7.88c-1.16,3.78-4,6.09-9,6.09-5.57,0-8.83-4-8.83-8.51a12.93,12.93,0,0,1,.84-3.89l17.65-51.57c1.78-5.36,5.35-9.66,13-9.66s11.45,4.41,13.24,9.66l17.22,51.57a15.75,15.75,0,0,1,.74,3.89c0,5.36-4,8.51-9.35,8.51-4.41,0-7.67-2.21-8.82-6.09ZM464.75,94.71h13L471.37,73Z"/></svg>